<?xml version="1.0" encoding="UTF-8"?>
<svg version="1.1" xmlns="http://www.w3.org/2000/svg" width="231" height="214">
<path d="M0 0 C1.3502774 -0.00679692 2.7005455 -0.01571155 4.05079651 -0.02655029 C7.67705375 -0.04910498 11.30258995 -0.04060792 14.9288578 -0.02465487 C18.74909838 -0.01187053 22.569283 -0.02377036 26.38952637 -0.03158569 C32.80129927 -0.04064621 39.21278288 -0.02878964 45.62451172 -0.00488281 C53.00526794 0.0223218 60.38533324 0.01350505 67.76607275 -0.01401484 C74.13767013 -0.03680831 80.50906124 -0.03985637 86.88068628 -0.02682149 C90.67101498 -0.0190828 94.46102044 -0.01782922 98.25132751 -0.03450394 C101.8173145 -0.04910002 105.38242309 -0.03865682 108.94831657 -0.01003265 C110.85770889 -0.00042131 112.76717679 -0.01499193 114.67652893 -0.03067017 C129.99330942 0.15411823 143.05892819 6.88850054 154.15820312 17.20947266 C165.32970956 28.8960406 171.60969606 43.71464822 171.48828125 59.82861328 C171.49529053 60.99273239 171.5022998 62.1568515 171.50952148 63.35624695 C171.52700567 67.17215424 171.51551196 70.98730893 171.50195312 74.80322266 C171.50465077 77.47400824 171.5085304 80.14477171 171.5135498 82.81555176 C171.52079938 88.40022812 171.51130979 93.98469195 171.4921875 99.56933594 C171.47042369 105.99913331 171.477477 112.42842309 171.49949312 118.85820818 C171.51772446 124.40764432 171.52016796 129.95692887 171.50973845 135.50638533 C171.50354565 138.80817261 171.5041524 142.10967305 171.5158844 145.41145325 C171.52610625 149.09642257 171.51046839 152.7804336 171.48828125 156.46533203 C171.49637817 157.53994186 171.5044751 158.6145517 171.51281738 159.72172546 C171.3421486 175.11521115 163.65412413 187.37518163 153.34179688 198.36572266 C144.1205499 207.23756488 131.3795813 214.71758921 118.35160828 214.80760193 C117.20663376 214.81764755 116.06165924 214.82769318 114.88198853 214.83804321 C113.62953339 214.84387421 112.37707825 214.8497052 111.08666992 214.85571289 C109.7508266 214.86525698 108.41498572 214.87514838 107.07914734 214.88536072 C102.69276853 214.91670587 98.30637107 214.93701988 93.91992188 214.95556641 C92.79738018 214.96051239 92.79738018 214.96051239 91.65216088 214.96555829 C84.58161234 214.99635682 77.5110593 215.02304122 70.44046307 215.03997707 C61.42803184 215.06182309 52.41620092 215.10366218 43.40400952 215.17341465 C37.0513091 215.22089215 30.69876915 215.24494268 24.34589702 215.25217396 C20.56078411 215.25709789 16.77634812 215.27186096 12.99143028 215.31191826 C-17.3582399 215.61804074 -17.3582399 215.61804074 -29.02929688 208.64697266 C-29.97827347 208.08219711 -30.92725006 207.51742157 -31.90498352 206.93553162 C-46.12936814 197.9545178 -55.78256376 184.81687974 -60.02929688 168.64697266 C-60.55569745 164.5030044 -60.60753709 160.42138206 -60.59448242 156.24755859 C-60.60631058 155.07181778 -60.61813873 153.89607697 -60.63032532 152.68470764 C-60.66297516 148.83339301 -60.66616972 144.98279114 -60.66601562 141.13134766 C-60.67262909 139.11341737 -60.68145292 137.09550399 -60.6903432 135.0775826 C-60.71759621 128.74143832 -60.72308086 122.40552643 -60.71557617 116.06933594 C-60.70834588 109.57743289 -60.74172 103.08661854 -60.79463357 96.59495139 C-60.83870099 90.98170756 -60.85510513 85.36881177 -60.85059768 79.75539804 C-60.84829805 76.42004718 -60.85939475 73.08627133 -60.89166832 69.75096893 C-61.05824087 50.51624212 -59.6602495 35.37194968 -46.02929688 20.64697266 C-45.42472656 19.96376953 -44.82015625 19.28056641 -44.19726562 18.57666016 C-32.29325757 5.82409756 -17.24692755 -0.14161948 0 0 Z " fill="#F4F4F4" transform="translate(60.029296875,-0.64697265625)"/>
<path d="M0 0 C2.81936308 2.89212084 3.41199146 4.9362569 3.375 8.9375 C3.19719674 13.99007597 2.18584362 16.73878246 -1.359375 20.40625 C-3.83147389 22.69995 -5.48836617 23.94438763 -8.875 24.3125 C-9.57625 24.209375 -10.2775 24.10625 -11 24 C-9.49111169 19.77511272 -6.67376036 18.34495342 -3 16 C-1.40827483 12.81654966 -1.60864279 9.46529023 -2 6 C-3.91802699 2.97153633 -6.60393927 1.93933595 -10 1 C-31.63802232 -1.47048286 -57.54030513 9.17719595 -74.5625 21.9375 C-80.33728756 26.94103045 -84.52654026 31.04521863 -85.46484375 38.8828125 C-86.03357982 53.62227191 -79.59179996 62.28191878 -70.08203125 72.828125 C-66.03877866 77.04585191 -61.62250078 80.74932231 -57 84.3125 C-56.34 84.869375 -55.68 85.42625 -55 86 C-55 86.66 -55 87.32 -55 88 C-54.35675781 87.75765625 -53.71351562 87.5153125 -53.05078125 87.265625 C-46.9277097 84.99458562 -40.76988815 82.9570836 -34.51953125 81.06640625 C-31.3563569 80.10797495 -28.2002604 79.13054525 -25.04663086 78.14135742 C-23.68217337 77.71377424 -22.31709889 77.28815498 -20.95141602 76.86450195 C-17.79366447 75.88409094 -14.64993855 74.88226633 -11.515625 73.828125 C-4.30511382 71.44762131 2.40821899 70.27357769 10 70 C7.31401348 74.02897978 4.12331305 74.50670422 -0.3125 75.8125 C-1.57271973 76.19825195 -1.57271973 76.19825195 -2.85839844 76.59179688 C-7.35703814 77.95683262 -11.87310414 79.25227302 -16.40234375 80.51171875 C-18.18496183 81.0075753 -19.9675144 81.50366742 -21.75 82 C-22.62414551 82.24290771 -23.49829102 82.48581543 -24.39892578 82.73608398 C-31.23249933 84.67856089 -37.73011584 87.1144756 -44.26171875 89.8984375 C-47 91 -47 91 -49 91 C-47.25007537 94.11097712 -45.30827378 96.93650286 -43.125 99.75 C-42.07709192 101.16205614 -41.03547935 102.57880459 -40 104 C-39.505 104.65613281 -39.01 105.31226563 -38.5 105.98828125 C-34.00655234 112.76674917 -33.95488673 120.08326695 -35 128 C-38.17496891 135.53943322 -43.61739339 140.75884351 -51.1953125 143.9140625 C-61.70534022 147.35312356 -75.85815315 148.27457037 -86.015625 143.3359375 C-90.76918638 140.13570523 -94.62521399 135.63662265 -96 130 C-97.02180002 122.46422482 -94.42065188 118.01644774 -90 112 C-82.64221493 102.53137495 -70.62756152 96.11958944 -60 91 C-60.8516583 86.63797354 -62.75728936 85.11067284 -66.125 82.1875 C-67.21339596 81.21890132 -68.29920324 80.24738829 -69.3828125 79.2734375 C-69.96450195 78.75104492 -70.54619141 78.22865234 -71.14550781 77.69042969 C-74.49875623 74.63383516 -77.75923639 71.48762085 -81 68.3125 C-81.63437988 67.70752686 -82.26875977 67.10255371 -82.92236328 66.47924805 C-88.89879545 60.58185232 -92.45081411 54.95300294 -92.60717773 46.40356445 C-92.59243408 45.65163818 -92.57769043 44.89971191 -92.5625 44.125 C-92.55226807 43.33633545 -92.54203613 42.5476709 -92.53149414 41.73510742 C-92.22825609 33.38961819 -89.54706221 27.58604971 -84 21.375 C-71.13544492 9.53849792 -53.64244965 2.53652646 -37 -2 C-35.85144531 -2.32097656 -34.70289063 -2.64195313 -33.51953125 -2.97265625 C-21.49419598 -6.06160139 -11.00906594 -6.54686237 0 0 Z " fill="#F0F0F0" transform="translate(150,39)"/>
<path d="M0 0 C2.81936308 2.89212084 3.41199146 4.9362569 3.375 8.9375 C3.19719674 13.99007597 2.18584362 16.73878246 -1.359375 20.40625 C-3.83147389 22.69995 -5.48836617 23.94438763 -8.875 24.3125 C-9.57625 24.209375 -10.2775 24.10625 -11 24 C-9.49111169 19.77511272 -6.67376036 18.34495342 -3 16 C-1.40827483 12.81654966 -1.60864279 9.46529023 -2 6 C-3.91802699 2.97153633 -6.60393927 1.93933595 -10 1 C-31.63802232 -1.47048286 -57.54030513 9.17719595 -74.5625 21.9375 C-80.33728756 26.94103045 -84.52654026 31.04521863 -85.46484375 38.8828125 C-86.03357982 53.62227191 -79.59179996 62.28191878 -70.08203125 72.828125 C-66.03877866 77.04585191 -61.62250078 80.74932231 -57 84.3125 C-56.34 84.869375 -55.68 85.42625 -55 86 C-55 86.66 -55 87.32 -55 88 C-54.35675781 87.75765625 -53.71351562 87.5153125 -53.05078125 87.265625 C-46.9277097 84.99458562 -40.76988815 82.9570836 -34.51953125 81.06640625 C-31.3563569 80.10797495 -28.2002604 79.13054525 -25.04663086 78.14135742 C-23.68217337 77.71377424 -22.31709889 77.28815498 -20.95141602 76.86450195 C-17.79366447 75.88409094 -14.64993855 74.88226633 -11.515625 73.828125 C-4.30511382 71.44762131 2.40821899 70.27357769 10 70 C7.31401348 74.02897978 4.12331305 74.50670422 -0.3125 75.8125 C-1.57271973 76.19825195 -1.57271973 76.19825195 -2.85839844 76.59179688 C-7.35703814 77.95683262 -11.87310414 79.25227302 -16.40234375 80.51171875 C-18.18496183 81.0075753 -19.9675144 81.50366742 -21.75 82 C-22.62414551 82.24290771 -23.49829102 82.48581543 -24.39892578 82.73608398 C-31.23249933 84.67856089 -37.73011584 87.1144756 -44.26171875 89.8984375 C-47 91 -47 91 -49 91 C-47.25007537 94.11097712 -45.30827378 96.93650286 -43.125 99.75 C-42.07709192 101.16205614 -41.03547935 102.57880459 -40 104 C-39.505 104.65613281 -39.01 105.31226563 -38.5 105.98828125 C-34.00655234 112.76674917 -33.95488673 120.08326695 -35 128 C-38.17496891 135.53943322 -43.61739339 140.75884351 -51.1953125 143.9140625 C-61.70534022 147.35312356 -75.85815315 148.27457037 -86.015625 143.3359375 C-90.76918638 140.13570523 -94.62521399 135.63662265 -96 130 C-97.02180002 122.46422482 -94.42065188 118.01644774 -90 112 C-82.64221493 102.53137495 -70.62756152 96.11958944 -60 91 C-60.8516583 86.63797354 -62.75728936 85.11067284 -66.125 82.1875 C-67.21339596 81.21890132 -68.29920324 80.24738829 -69.3828125 79.2734375 C-69.96450195 78.75104492 -70.54619141 78.22865234 -71.14550781 77.69042969 C-74.49875623 74.63383516 -77.75923639 71.48762085 -81 68.3125 C-81.63437988 67.70752686 -82.26875977 67.10255371 -82.92236328 66.47924805 C-88.89879545 60.58185232 -92.45081411 54.95300294 -92.60717773 46.40356445 C-92.59243408 45.65163818 -92.57769043 44.89971191 -92.5625 44.125 C-92.55226807 43.33633545 -92.54203613 42.5476709 -92.53149414 41.73510742 C-92.22825609 33.38961819 -89.54706221 27.58604971 -84 21.375 C-71.13544492 9.53849792 -53.64244965 2.53652646 -37 -2 C-35.85144531 -2.32097656 -34.70289063 -2.64195313 -33.51953125 -2.97265625 C-21.49419598 -6.06160139 -11.00906594 -6.54686237 0 0 Z M-62 97 C-64.69723904 98.63469033 -65.78120986 99 -69 99 C-77.13096622 103.84340417 -88.60936634 111.78171474 -92 121 C-92.77096872 126.37243469 -92.75273569 130.66450119 -90.0625 135.4375 C-81.90382498 142.26414645 -73.46909374 143.09529158 -63.10400391 142.27050781 C-54.15670259 141.12017016 -45.84019793 136.92293125 -40 130 C-37.81976321 123.45928963 -37.76366454 116.10734758 -40.31640625 109.69140625 C-42.05420481 106.63956762 -43.9129139 103.82346541 -46 101 C-46.60972656 100.16726562 -47.21945313 99.33453125 -47.84765625 98.4765625 C-50.91670362 94.29364009 -50.91670362 94.29364009 -55.58203125 92.6796875 C-58.85395023 93.11312426 -59.81558407 94.60418898 -62 97 Z " fill="#2A2A2A" transform="translate(150,39)"/>
<path d="M0 0 C0.66 0.33 1.32 0.66 2 1 C2.59753759 15.91630868 2.59753759 15.91630868 -3.3125 22.625 C-13.77134286 31.86769834 -25.49172775 33.03478247 -38.96337891 32.20703125 C-45.59329794 31.53307161 -50.24918428 29.22068468 -54.625 24.25 C-55.43722398 23.18199278 -56.23721875 22.1038623 -57 21 C-56.67 20.34 -56.34 19.68 -56 19 C-55.01 19 -54.02 19 -53 19 C-52.2575 19.763125 -51.515 20.52625 -50.75 21.3125 C-45.51577921 26.42776123 -40.02936144 27.56412781 -32.875 27.5 C-32.13652832 27.49500488 -31.39805664 27.49000977 -30.63720703 27.48486328 C-21.23568977 27.19062197 -12.07536534 24.18277539 -5.2265625 17.51953125 C-3.28344871 15.11229792 -2.63914225 13.0213997 -2 10 C-1.81824219 9.14148438 -1.63648438 8.28296875 -1.44921875 7.3984375 C-0.93949524 4.9365076 -0.45918407 2.47177808 0 0 Z " fill="#272727" transform="translate(113,153)"/>
<path d="M0 0 C-2.68598652 4.02897978 -5.87668695 4.50670422 -10.3125 5.8125 C-11.15264648 6.06966797 -11.99279297 6.32683594 -12.85839844 6.59179688 C-17.35703814 7.95683262 -21.87310414 9.25227302 -26.40234375 10.51171875 C-28.18496183 11.0075753 -29.9675144 11.50366742 -31.75 12 C-32.62414551 12.24290771 -33.49829102 12.48581543 -34.39892578 12.73608398 C-41.23249933 14.67856089 -47.73011584 17.1144756 -54.26171875 19.8984375 C-57 21 -57 21 -59 21 C-59.33 21.66 -59.66 22.32 -60 23 C-59.67 20.69 -59.34 18.38 -59 16 C-58.3709375 15.81824219 -57.741875 15.63648437 -57.09375 15.44921875 C-52.46253729 14.08914875 -47.94686703 12.61737698 -43.44140625 10.87890625 C-38.03810046 8.93371617 -32.51949642 7.31342275 -27.03076172 5.62744141 C-25.11290746 5.03488485 -23.19889525 4.42993425 -21.28515625 3.82421875 C-19.59712891 3.29248047 -19.59712891 3.29248047 -17.875 2.75 C-16.88242188 2.43546875 -15.88984375 2.1209375 -14.8671875 1.796875 C-9.85982527 0.40518304 -5.19020532 -0.12357632 0 0 Z " fill="#3E3E3E" transform="translate(160,109)"/>
<path d="M0 0 C0.66 0.33 1.32 0.66 2 1 C1.74609375 2.859375 1.74609375 2.859375 1 5 C-0.77734375 6.265625 -0.77734375 6.265625 -2.9375 7.25 C-4.00291016 7.75273437 -4.00291016 7.75273437 -5.08984375 8.265625 C-7 9 -7 9 -9 9 C-16.74796852 13.86069136 -27.77059831 20.99079735 -31 30 C-31.24110759 33.05014928 -31.24110759 33.05014928 -31.125 36.25 C-31.09792969 37.86648437 -31.09792969 37.86648437 -31.0703125 39.515625 C-31.04710937 40.33546875 -31.02390625 41.1553125 -31 42 C-32.485 42.495 -32.485 42.495 -34 43 C-36.49771036 39.25343446 -36.83949965 35.33122387 -36 31 C-29.50928954 16.23998583 -15.44865668 7.78668365 -1.67944336 0.6081543 C-0.8481189 0.30711792 -0.8481189 0.30711792 0 0 Z " fill="#2F2F2F" transform="translate(90,130)"/>
<path d="M0 0 C2.28125 -0.24609375 2.28125 -0.24609375 5 0 C10.05503768 4.53025623 14.44802382 11.71310036 17 18 C16 20 16 20 15 21 C14.76924918 22.34747084 14.58846937 23.70377565 14.4375 25.0625 C14.293125 26.361875 14.14875 27.66125 14 29 C13.67 29 13.34 29 13 29 C13.00902344 28.34515625 13.01804687 27.6903125 13.02734375 27.015625 C12.67510678 16.17285207 7.18574701 7.83899674 0 0 Z " fill="#2C2C2C" transform="translate(98,134)"/>
<path d="M0 0 C1.17219543 0.78345715 2.33763668 1.57702836 3.5 2.375 C4.47453125 3.03628906 4.47453125 3.03628906 5.46875 3.7109375 C6.22671875 4.34902344 6.22671875 4.34902344 7 5 C7 5.66 7 6.32 7 7 C8.98 6.67 10.96 6.34 13 6 C12.979375 6.94875 12.95875 7.8975 12.9375 8.875 C12.77448174 11.90666283 12.77448174 11.90666283 14 14 C12.35 14 10.7 14 9 14 C9 13.34 9 12.68 9 12 C7.35 12 5.7 12 4 12 C3.566875 11.071875 3.13375 10.14375 2.6875 9.1875 C1.2554627 6.48254066 0.14813084 5.0458389 -2 3 C-2 2.34 -2 1.68 -2 1 C-1.34 0.67 -0.68 0.34 0 0 Z " fill="#222222" transform="translate(88,120)"/>
<path d="M0 0 C1.134375 0.020625 2.26875 0.04125 3.4375 0.0625 C3.1075 1.0525 2.7775 2.0425 2.4375 3.0625 C-0.04430012 4.26677373 -2.42729775 5.28790913 -5 6.25 C-5.69416016 6.52263672 -6.38832031 6.79527344 -7.10351562 7.07617188 C-12.24606438 9.0625 -12.24606438 9.0625 -14.5625 9.0625 C-14.8925 9.7225 -15.2225 10.3825 -15.5625 11.0625 C-15.2325 8.7525 -14.9025 6.4425 -14.5625 4.0625 C-13.85222656 3.85753906 -13.14195313 3.65257813 -12.41015625 3.44140625 C-11.49105469 3.17199219 -10.57195312 2.90257813 -9.625 2.625 C-8.25021484 2.22474609 -8.25021484 2.22474609 -6.84765625 1.81640625 C-1.41733871 0.02486559 -1.41733871 0.02486559 0 0 Z " fill="#383837" transform="translate(115.5625,120.9375)"/>
<path d="M0 0 C0.639375 0.66 1.27875 1.32 1.9375 2 C5.18518339 5.27584249 8.69968251 8.23806518 12.20703125 11.23046875 C12.79871094 11.81441406 13.39039062 12.39835937 14 13 C14 13.66 14 14.32 14 15 C13.34 15 12.68 15 12 15 C11.67 15.66 11.34 16.32 11 17 C6.71 12.71 2.42 8.42 -2 4 C-1.34 2.68 -0.68 1.36 0 0 Z " fill="#303030" transform="translate(74,106)"/>
<path d="M0 0 C3 0 3 0 5.4375 2.3125 C6.283125 3.199375 7.12875 4.08625 8 5 C9.31175986 6.02813611 10.6369893 7.04084432 12 8 C11.67 8.99 11.34 9.98 11 11 C5.03648545 9.72210402 2.51582826 6.66283606 -1 2 C-0.67 1.34 -0.34 0.68 0 0 Z " fill="#252525" transform="translate(57,172)"/>
<path d="M0 0 C-0.25043116 3.38082062 -1.2814127 4.2814127 -3.75 6.75 C-7.01629806 9.01128327 -8.1690781 9.56337087 -12 9 C-10.6015209 5.5912072 -9.14993067 4.12606165 -6 2.25 C-5.29875 1.82203125 -4.5975 1.3940625 -3.875 0.953125 C-2 0 -2 0 0 0 Z " fill="#272727" transform="translate(151,54)"/>
<path d="M0 0 C3.21029714 1.10699901 4.00968977 2.01603825 5.8125 5 C6.204375 5.99 6.59625 6.98 7 8 C6 10 6 10 5 11 C4.76924918 12.34747084 4.58846937 13.70377565 4.4375 15.0625 C4.293125 16.361875 4.14875 17.66125 4 19 C3.67 19 3.34 19 3 19 C2.95101562 18.25234375 2.90203125 17.5046875 2.8515625 16.734375 C2.77679688 15.74953125 2.70203125 14.7646875 2.625 13.75 C2.55539063 12.77546875 2.48578125 11.8009375 2.4140625 10.796875 C2.00982213 8.06634573 1.23186348 6.42366635 0 4 C0 2.68 0 1.36 0 0 Z " fill="#373737" transform="translate(108,144)"/>
<path d="M0 0 C-2.42182607 3.6327391 -3.50445117 3.68131947 -7.625 4.6875 C-8.62789062 4.93886719 -9.63078125 5.19023438 -10.6640625 5.44921875 C-11.43492187 5.63097656 -12.20578125 5.81273438 -13 6 C-13 5.34 -13 4.68 -13 4 C-13.66 4 -14.32 4 -15 4 C-15 3.34 -15 2.68 -15 2 C-9.92523206 0.73694665 -5.27203646 -0.27036084 0 0 Z " fill="#4C4C4C" transform="translate(160,109)"/>
<path d="M0 0 C0.66 1.32 1.32 2.64 2 4 C-0.31 5.98 -2.62 7.96 -5 10 C-5.99 9.34 -6.98 8.68 -8 8 C-5.36 5.36 -2.72 2.72 0 0 Z " fill="#383838" transform="translate(67,144)"/>
<path d="M0 0 C0 0.66 0 1.32 0 2 C-4.17737474 3.59138085 -7.53160785 4.21278058 -12 4 C-11.34 3.67 -10.68 3.34 -10 3 C-9.67 2.01 -9.34 1.02 -9 0 C-5.62182575 -0.84454356 -3.32534757 -1.10844919 0 0 Z " fill="#383838" transform="translate(147,113)"/>
<path d="M0 0 C0.66 0.33 1.32 0.66 2 1 C2 4.3 2 7.6 2 11 C1.01 10.67 0.02 10.34 -1 10 C-1.125 2.25 -1.125 2.25 0 0 Z " fill="#1E1E1E" transform="translate(113,153)"/>
<path d="M0 0 C0 0.66 0 1.32 0 2 C0.66 2.66 1.32 3.32 2 4 C-0.97 4.66 -3.94 5.32 -7 6 C-7.33 4.68 -7.66 3.36 -8 2 C-2.25 0 -2.25 0 0 0 Z " fill="#4D4D4D" transform="translate(137,114)"/>
<path d="M0 0 C1.7074998 1.28062485 3.37373596 2.61767557 5 4 C5 4.66 5 5.32 5 6 C4.34 6 3.68 6 3 6 C2.67 6.66 2.34 7.32 2 8 C0.4375 6.8125 0.4375 6.8125 -1 5 C-0.6875 2.3125 -0.6875 2.3125 0 0 Z " fill="#383838" transform="translate(83,115)"/>
<path d="M0 0 C2.475 0.99 2.475 0.99 5 2 C4.67 3.32 4.34 4.64 4 6 C2.02 5.34 0.04 4.68 -2 4 C-1.34 2.68 -0.68 1.36 0 0 Z " fill="#333333" transform="translate(64,177)"/>
<path d="M0 0 C0 1.65 0 3.3 0 5 C-0.99 5.33 -1.98 5.66 -3 6 C-3.33 4.35 -3.66 2.7 -4 1 C-2 0 -2 0 0 0 Z " fill="#2B2B2B" transform="translate(97,178)"/>
<path d="" fill="#FFFFFF" transform="translate(0,0)"/>
<path d="" fill="#FFFFFF" transform="translate(0,0)"/>
</svg>
